<?xml version="1.0" standalone="no"?><!DOCTYPE svg PUBLIC "-//W3C//DTD SVG 1.1//EN" "http://www.w3.org/Graphics/SVG/1.1/DTD/svg11.dtd"><svg t="1530601889769" class="icon" style="" viewBox="0 0 1024 1024" version="1.1" xmlns="http://www.w3.org/2000/svg" p-id="8753" xmlns:xlink="http://www.w3.org/1999/xlink" width="64" height="64"><defs><style type="text/css"></style></defs><path d="M512 1266.12320149C97.23223918 1266.12320149-242.12320149 926.76776082-242.12320149 512S97.23223918-242.12320149 512-242.12320149s754.12320149 339.35544067 754.12320149 754.12320149-339.35544067 754.12320149-754.12320149 754.12320149z" fill="#4AC6C6" p-id="8754"></path><path d="M507.733333 192c-174.933333 4.266667-311.466667 153.6-311.466666 328.533333v234.666667c0 42.666667 46.933333 68.266667 81.066666 46.933333 21.333333-12.8 38.4-25.6 76.8-25.6 81.066667 0 81.066667 55.466667 157.866667 55.466667s81.066667-55.466667 157.866667-55.466667c38.4 0 55.466667 12.8 76.8 25.6 34.133333 21.333333 81.066667-4.266667 81.066666-46.933333V512c4.266667-179.2-140.8-324.266667-320-320z" fill="#FFFFFF" p-id="8755"></path><path d="M405.333333 430.933333m-25.6 0a25.6 25.6 0 1 0 51.2 0 25.6 25.6 0 1 0-51.2 0Z" fill="#2A5083" p-id="8756"></path><path d="M618.666667 430.933333m-25.6 0a25.6 25.6 0 1 0 51.2 0 25.6 25.6 0 1 0-51.2 0Z" fill="#2A5083" p-id="8757"></path><path d="M512 652.8c51.2 0 98.133333-34.133333 110.933333-81.066667 4.266667-21.333333-8.533333-38.4-29.866666-38.4H426.666667c-21.333333 0-34.133333 21.333333-29.866667 38.4 17.066667 46.933333 64 81.066667 115.2 81.066667z" fill="#2A5083" p-id="8758"></path><path d="M512 593.066667c-29.866667 0-51.2 17.066667-68.266667 38.4 17.066667 12.8 42.666667 21.333333 68.266667 21.333333 25.6 0 46.933333-8.533333 64-21.333333-12.8-21.333333-34.133333-38.4-64-38.4z" fill="#FF4E4A" p-id="8759"></path><path d="M277.333333 802.133333c17.066667-12.8 34.133333-25.6 72.533334-25.6v-25.6c0-106.666667-64-196.266667-153.6-234.666666v243.2c-4.266667 38.4 42.666667 64 81.066666 42.666666zM695.466667 780.8c25.6 4.266667 38.4 12.8 55.466666 25.6 34.133333 21.333333 81.066667-4.266667 81.066667-46.933333v-149.333334c-68.266667 38.4-115.2 98.133333-136.533333 170.666667z" fill="#DBF4F4" p-id="8760"></path></svg>